<?xml version="1.0" standalone="no"?>
<!DOCTYPE svg PUBLIC "-//W3C//DTD SVG 20010904//EN"
 "http://www.w3.org/TR/2001/REC-SVG-20010904/DTD/svg10.dtd">
<svg version="1.0" xmlns="http://www.w3.org/2000/svg"
 width="1024.000000pt" height="1024.000000pt" viewBox="0 0 1024.000000 1024.000000"
 preserveAspectRatio="xMidYMid meet">
<metadata>
Created by potrace 1.16, written by Peter Selinger 2001-2019
</metadata>
<g transform="translate(0.000000,1024.000000) scale(0.100000,-0.100000)"
fill="#000000" stroke="none">
<path d="M0 5120 l0 -5120 5120 0 5120 0 0 5120 0 5120 -5120 0 -5120 0 0
-5120z m5250 3054 c99 -13 262 -47 394 -80 143 -37 513 -201 610 -271 28 -20
89 -64 136 -96 81 -57 232 -205 275 -270 107 -163 133 -213 170 -327 15 -47
45 -131 66 -188 40 -105 46 -136 29 -147 -8 -5 -180 69 -180 78 0 2 10 3 22 3
39 -2 31 29 -22 90 -29 33 -68 85 -88 117 -92 146 -121 187 -186 255 -111 117
-345 293 -493 371 -41 21 -417 163 -483 182 -174 51 -446 82 -630 74 -324 -16
-534 -100 -731 -294 -68 -67 -80 -83 -74 -103 4 -15 3 -18 -3 -10 -6 9 -13 7
-28 -10 -12 -14 -13 -18 -3 -10 14 10 25 6 70 -24 30 -20 80 -48 112 -62 31
-14 57 -32 57 -40 0 -12 3 -12 15 -2 9 8 15 9 15 2 0 -6 -4 -14 -10 -17 -5 -3
-10 -14 -10 -23 1 -16 1 -16 11 1 5 9 14 17 20 17 5 0 2 -11 -7 -25 -9 -14
-21 -22 -27 -18 -6 3 -7 1 -3 -6 4 -6 0 -23 -9 -37 -32 -49 -65 -156 -72 -228
-15 -185 70 -360 244 -506 69 -58 124 -89 335 -193 139 -69 298 -145 353 -170
55 -25 138 -63 185 -85 47 -22 137 -63 200 -92 291 -132 386 -189 502 -298
148 -140 222 -283 264 -507 18 -96 15 -320 -5 -380 -7 -22 -10 -24 -10 -10 -1
19 -8 20 -78 20 -43 0 -87 4 -98 9 -34 15 -55 17 -76 6 -15 -9 -19 -7 -19 7
-1 10 -9 0 -20 -22 l-20 -40 8 45 c15 96 6 240 -22 350 -33 125 -66 190 -151
298 -103 130 -267 231 -690 427 -126 59 -295 137 -375 175 -80 38 -188 88
-241 113 -320 148 -531 357 -603 597 -54 180 -31 414 59 602 21 44 23 64 4 52
-5 -3 -9 -14 -9 -25 0 -12 -5 -17 -10 -14 -6 4 -17 1 -25 -5 -11 -10 -15 -10
-15 -1 0 7 -5 9 -12 5 -7 -4 -8 -3 -4 4 4 7 -3 16 -18 22 -25 9 -43 23 -93 70
-16 15 -24 19 -21 9 4 -11 0 -15 -15 -14 -12 1 -21 5 -19 8 1 4 2 12 2 18 0 5
4 7 10 4 5 -3 8 0 5 7 -16 42 265 337 390 410 128 74 275 145 335 162 223 62
535 77 810 40z m-1330 -748 c0 -3 -4 -8 -10 -11 -5 -3 -10 -1 -10 4 0 6 5 11
10 11 6 0 10 -2 10 -4z m430 0 c0 -2 -8 -10 -17 -17 -16 -13 -17 -12 -4 4 13
16 21 21 21 13z m380 -204 c47 -1 70 1 70 9 0 7 8 6 23 -4 25 -16 40 -12 50
13 3 8 6 -3 6 -26 1 -49 56 -139 119 -196 37 -34 202 -119 362 -189 30 -13
112 -52 183 -86 70 -35 164 -78 210 -97 45 -19 143 -63 217 -99 443 -211 518
-256 669 -401 272 -263 412 -636 381 -1016 -5 -63 -14 -133 -19 -155 l-9 -40
-1 37 c0 20 -5 40 -11 43 -5 3 -10 10 -10 16 0 5 5 9 10 9 6 0 10 -7 10 -17 0
-9 3 -14 6 -10 11 11 -7 46 -22 40 -7 -3 -14 -1 -14 3 0 5 -18 9 -40 9 -38 0
-56 -18 -27 -28 6 -2 9 -7 6 -11 -8 -8 -59 14 -59 26 0 4 -7 8 -16 8 -8 0 -12
-4 -9 -10 3 -5 1 -10 -4 -10 -6 0 -12 10 -12 23 l-2 22 -4 -23 c-2 -12 -8 -20
-12 -18 -4 3 -7 -5 -7 -17 1 -12 -4 -21 -11 -20 -6 1 -15 -11 -18 -28 -4 -17
-14 -42 -22 -57 -14 -26 -15 -25 -9 23 18 147 17 215 -3 373 -11 90 -28 177
-37 194 -9 17 -23 54 -31 82 -34 117 -202 364 -292 430 -15 12 -59 46 -96 76
-92 74 -346 214 -535 295 -36 15 -96 42 -135 60 -38 18 -119 54 -180 80 -60
26 -159 70 -218 97 -59 27 -127 57 -150 67 -57 25 -202 123 -256 174 -63 60
-129 166 -142 228 -11 52 -7 148 8 185 6 14 9 10 11 -21 l3 -40 69 -3z m-1397
-622 c2 -30 11 -70 21 -88 9 -18 21 -66 25 -105 10 -87 47 -178 110 -272 26
-38 52 -84 58 -101 11 -33 209 -232 246 -249 12 -5 26 -15 30 -22 4 -7 14 -13
21 -13 7 0 21 -9 32 -21 10 -12 36 -30 57 -40 23 -12 35 -24 31 -31 -5 -8 -1
-9 11 -5 11 5 22 1 29 -9 8 -10 37 -19 82 -24 62 -8 142 -27 121 -29 -5 -1 -5
-6 -1 -12 5 -8 9 -8 14 1 10 16 132 -50 125 -68 -3 -10 1 -11 16 -7 16 5 19 4
14 -6 -6 -9 -3 -11 9 -6 9 4 24 3 34 -2 74 -37 121 -54 141 -52 15 2 21 -1 17
-8 -4 -6 4 -15 18 -21 14 -5 26 -14 26 -20 0 -5 8 -10 18 -10 25 -1 57 -26 40
-33 -9 -4 -8 -6 4 -6 9 -1 18 -6 20 -12 2 -5 21 -14 43 -20 59 -15 119 -37
103 -38 -11 -1 25 -41 37 -41 11 0 64 -39 54 -40 -9 0 -133 51 -144 60 -5 4
-46 22 -90 40 -193 78 -245 101 -324 139 -47 23 -91 41 -99 41 -8 0 -37 13
-63 30 -27 16 -68 35 -92 41 -24 6 -59 23 -77 39 -18 15 -45 30 -59 33 -14 3
-42 17 -61 31 -19 13 -89 55 -154 92 -95 54 -138 87 -211 159 -79 78 -98 104
-144 194 -67 136 -101 302 -106 521 -3 109 -2 133 5 95 5 -27 11 -75 13 -105z
m76 -1540 c34 -19 91 -52 127 -73 36 -22 159 -83 272 -137 181 -85 297 -137
612 -275 75 -33 126 -50 360 -121 115 -36 134 -39 247 -39 67 0 113 -3 102 -7
-11 -5 -71 -8 -132 -7 -62 0 -124 1 -139 0 -15 0 -27 5 -25 11 1 6 -11 15 -28
20 -54 16 -120 30 -142 30 -13 0 -21 4 -18 8 3 4 -12 11 -33 15 -20 4 -43 12
-51 18 -8 7 -12 8 -9 2 3 -6 -7 -10 -24 -11 -19 -1 -25 2 -17 7 10 6 5 11 -16
19 -17 6 -40 15 -52 21 -11 6 -26 9 -31 5 -6 -3 -13 -2 -17 4 -3 5 -23 10 -45
10 -32 0 -39 -4 -44 -25 -3 -13 -20 -38 -36 -55 -17 -17 -30 -37 -30 -45 0
-10 -11 -15 -35 -15 -19 0 -35 -4 -35 -10 0 -5 -20 -10 -45 -10 -25 0 -45 4
-45 9 0 11 -90 19 -96 9 -2 -4 5 -13 17 -21 11 -8 16 -18 11 -21 -6 -3 -12 -2
-14 2 -1 5 -30 28 -63 52 -33 24 -67 49 -75 57 -8 7 -27 23 -43 34 -15 11 -24
25 -21 31 4 6 2 8 -3 5 -13 -8 -221 182 -263 240 -17 22 -67 76 -111 120 -79
76 -159 195 -159 236 0 15 9 11 44 -20 24 -21 71 -54 105 -73z m1076 82 c-3
-3 -11 0 -18 7 -9 10 -8 11 6 5 10 -3 15 -9 12 -12z m75 -27 c25 -13 41 -24
35 -24 -5 0 -30 11 -55 24 -25 13 -40 24 -35 24 6 0 30 -11 55 -24z m664 -315
c7 -24 6 -24 -8 -6 -9 11 -16 27 -16 35 0 21 16 2 24 -29z m-787 -276 c-3 -3
-12 -4 -19 -1 -8 3 -5 6 6 6 11 1 17 -2 13 -5z m943 -28 c0 -2 -7 -7 -16 -10
-8 -3 -12 -2 -9 4 6 10 25 14 25 6z m-1304 -143 c0 -16 -4 -20 -15 -14 -21 12
-22 37 -2 37 11 0 17 -8 17 -23z m1553 -10 c-28 -34 -365 -173 -456 -188 -49
-8 -54 -8 -51 3 1 4 9 6 16 4 15 -4 42 15 42 30 0 5 -4 7 -9 3 -5 -3 -12 -1
-15 4 -3 5 3 11 14 14 11 3 19 11 18 19 -2 8 4 12 15 10 9 -2 17 3 17 9 0 30
33 49 86 49 29 0 56 5 59 10 3 6 32 10 63 10 41 0 53 -3 42 -10 -13 -8 -13
-10 -1 -10 11 0 10 -4 -5 -16 -10 -8 -14 -14 -9 -11 37 15 93 39 107 47 10 6
23 10 29 10 6 0 17 7 25 15 21 20 30 19 13 -2z m-1504 -33 c3 -6 -1 -7 -9 -4
-18 7 -21 14 -7 14 6 0 13 -4 16 -10z m72 -19 c-15 -5 -3 -14 52 -39 82 -37
95 -51 21 -22 -51 20 -130 58 -130 63 0 1 17 3 38 4 23 0 30 -2 19 -6z m220
-107 c-3 -3 -12 -4 -19 -1 -8 3 -5 6 6 6 11 1 17 -2 13 -5z m2959 -1038 c22
-34 52 -78 66 -99 l27 -38 22 50 c12 28 37 72 55 98 19 27 34 52 34 58 0 6 41
11 97 13 l98 3 -21 -23 c-12 -13 -42 -54 -67 -93 -26 -38 -67 -95 -92 -125
-57 -70 -60 -76 -44 -99 100 -139 149 -203 181 -240 21 -24 38 -47 38 -50 0
-3 -35 -7 -78 -7 l-78 -2 -25 36 c-56 83 -121 167 -129 167 -7 0 -50 -53 -127
-157 l-35 -48 -74 0 c-41 0 -74 2 -74 5 0 3 20 31 44 62 24 32 53 76 64 99 11
22 41 63 66 91 25 28 46 54 46 58 0 9 -143 218 -187 272 -18 23 -33 44 -33 47
0 3 37 6 83 8 62 2 84 0 92 -11 6 -8 28 -42 51 -75z m-4433 45 c71 -30 76 -35
59 -46 -10 -8 -31 -32 -47 -54 -20 -30 -31 -38 -40 -31 -21 18 -108 40 -157
40 -35 0 -54 -6 -74 -23 -52 -45 -14 -76 143 -118 116 -31 145 -47 181 -99 27
-40 28 -82 3 -135 -37 -80 -120 -126 -241 -133 -76 -4 -98 1 -253 60 l-38 15
24 16 c13 8 32 31 41 51 18 39 24 39 99 -1 22 -12 57 -17 113 -17 94 -1 124
15 124 66 0 35 -22 46 -159 78 -81 19 -100 28 -137 62 -95 87 -82 207 28 276
52 32 55 33 153 30 87 -3 110 -8 178 -37z m842 21 c-3 -8 -5 -38 -5 -68 l0
-54 -102 0 -101 0 6 -251 5 -252 -45 7 c-25 3 -58 6 -72 6 l-26 0 3 245 3 245
-90 0 c-102 0 -101 -1 -101 87 l0 55 265 -4 c216 -2 264 -5 260 -16z m631 -2
c112 -23 184 -102 184 -201 0 -60 -43 -128 -104 -164 -25 -15 -46 -32 -46 -38
0 -7 34 -55 76 -107 42 -52 77 -97 79 -100 2 -3 -32 -6 -74 -7 -71 -1 -78 1
-91 23 -55 89 -118 173 -134 177 -10 3 -40 3 -67 0 l-49 -6 0 -98 0 -99 -62 0
-63 0 0 273 c0 149 -3 292 -7 317 l-7 45 157 -2 c86 -2 180 -8 208 -13z m892
-127 c39 -82 93 -202 122 -267 28 -66 63 -143 78 -170 l27 -51 -71 -1 -72 -1
-18 40 c-40 88 -38 87 -194 87 -157 0 -153 2 -186 -89 l-16 -46 -69 3 c-38 2
-69 5 -69 6 0 1 19 45 41 97 42 96 100 228 185 426 l49 112 61 1 61 0 71 -147z
m831 131 c164 -37 252 -154 239 -317 -10 -125 -78 -221 -195 -274 -51 -23 -71
-26 -220 -31 l-163 -5 0 299 c0 164 -3 309 -6 322 l-6 22 141 0 c93 0 166 -5
210 -16z m708 -295 c-4 -172 -8 -313 -9 -314 -2 -2 -31 -5 -65 -7 l-63 -4 0
318 0 318 72 0 71 0 -6 -311z m-2921 -545 c45 -22 50 -32 26 -56 -16 -16 -23
-18 -40 -9 -38 20 -81 13 -113 -18 -37 -37 -38 -79 -4 -111 22 -21 31 -22 87
-17 82 9 101 -2 69 -37 -51 -55 -143 -46 -208 19 -38 38 -43 47 -43 89 0 58
20 90 79 128 51 32 97 36 147 12z m423 -4 c64 -32 106 -122 81 -171 -50 -97
-147 -134 -230 -88 -91 51 -103 181 -22 236 67 45 116 52 171 23z m339 -23
c18 -17 38 -46 44 -64 7 -18 15 -33 20 -33 4 0 26 27 48 60 38 55 79 84 97 66
4 -3 9 -69 11 -146 l5 -140 -32 0 -31 0 0 89 c0 97 -11 122 -30 67 -14 -43
-47 -86 -65 -86 -7 0 -24 19 -37 42 -38 68 -48 61 -48 -31 l0 -81 -30 0 -30 0
0 151 0 150 23 -6 c12 -4 37 -21 55 -38z m965 -81 c31 -67 59 -133 62 -148 7
-27 5 -28 -28 -28 -31 0 -36 4 -42 30 -7 30 -7 30 -75 30 -68 0 -68 0 -75 -30
-5 -25 -11 -30 -36 -30 -16 0 -29 5 -29 12 0 6 20 61 44 122 25 61 47 122 51
136 5 20 12 25 39 26 33 0 34 -1 89 -120z m356 32 c40 -43 75 -77 77 -75 2 2
-1 39 -6 82 -5 43 -9 80 -7 81 2 2 16 0 31 -4 27 -7 28 -10 34 -92 4 -47 6
-110 7 -140 0 -53 -1 -55 -25 -53 -17 2 -51 31 -105 89 l-80 86 3 -91 3 -91
-25 0 c-23 0 -26 4 -26 38 0 22 -3 86 -6 144 -6 99 -6 106 12 110 26 6 30 4
113 -84z m370 62 c12 -37 49 -90 61 -90 5 0 18 26 30 58 l21 58 48 0 47 -1
-33 -59 c-18 -32 -45 -72 -58 -88 -20 -24 -25 -41 -25 -84 0 -53 0 -54 -30
-54 -30 0 -30 1 -30 53 0 42 -5 58 -21 73 -20 18 -99 143 -99 157 0 4 18 7 39
7 35 0 40 -4 50 -30z m-1078 -19 c50 -50 51 -79 3 -126 -35 -35 -39 -37 -96
-33 l-60 3 4 -47 c5 -50 2 -53 -39 -42 -22 6 -23 10 -23 145 l0 139 86 0 86 0
39 -39z m1974 -93 c39 -5 126 -12 194 -13 68 -2 126 -6 129 -10 3 -3 -181 -4
-409 -3 -412 3 -414 3 -417 24 -3 21 -2 21 215 17 120 -2 250 -9 288 -15z
m-3802 -15 c3 -16 5 -28 4 -29 -1 -1 -69 2 -152 7 -82 4 -204 8 -270 8 -81 1
-115 4 -105 11 10 6 -43 10 -158 10 -101 0 -171 -4 -168 -9 3 -5 -16 -11 -44
-13 -48 -3 -60 4 -60 33 0 5 193 9 474 9 l474 0 5 -27z m4257 6 c0 -16 -7 -19
-45 -19 -52 0 -55 4 -20 23 39 20 65 19 65 -4z"/>
<path d="M6261 4884 c0 -11 3 -14 6 -6 3 7 2 16 -1 19 -3 4 -6 -2 -5 -13z"/>
<path d="M3877 4496 c10 -12 35 -36 56 -51 32 -23 41 -25 48 -14 6 9 3 18 -6
25 -8 6 -13 13 -10 16 2 2 -9 3 -25 2 -21 -1 -33 5 -45 22 -8 13 -20 24 -26
24 -5 0 -2 -11 8 -24z m89 -47 c8 -14 -10 -11 -32 6 -18 13 -18 14 4 8 12 -3
25 -9 28 -14z"/>
<path d="M5205 4220 c3 -5 14 -10 23 -10 15 0 15 2 2 10 -20 13 -33 13 -25 0z"/>
<path d="M4190 2997 l0 -92 93 6 c134 9 187 42 172 110 -12 52 -54 69 -167 69
l-98 0 0 -93z"/>
<path d="M5127 2937 c-26 -56 -47 -105 -47 -109 0 -9 125 -11 168 -2 28 6 29
8 22 36 -5 16 -21 50 -36 76 -15 26 -33 59 -41 75 -8 15 -15 27 -16 27 -1 0
-23 -46 -50 -103z"/>
<path d="M5930 2910 l0 -193 80 7 c95 8 117 15 163 55 99 88 87 239 -24 297
-15 7 -70 16 -123 20 l-96 7 0 -193z"/>
<path d="M4211 2284 c-28 -36 -26 -66 6 -98 37 -37 66 -42 107 -17 82 51 51
141 -50 141 -34 0 -47 -5 -63 -26z"/>
<path d="M5551 2263 c-8 -21 -16 -44 -18 -50 -4 -9 7 -13 37 -13 45 0 45 1 18
73 -14 36 -21 34 -37 -10z"/>
<path d="M5157 2313 c-4 -3 -7 -21 -7 -39 0 -37 21 -49 76 -42 23 2 30 9 32
31 2 16 -2 35 -9 43 -12 14 -80 20 -92 7z"/>
</g>
</svg>
