<?xml version="1.0" standalone="no"?>
<!DOCTYPE svg PUBLIC "-//W3C//DTD SVG 20010904//EN"
 "http://www.w3.org/TR/2001/REC-SVG-20010904/DTD/svg10.dtd">
<svg version="1.0" xmlns="http://www.w3.org/2000/svg"
 width="1024.000000pt" height="1024.000000pt" viewBox="0 0 1024.000000 1024.000000"
 preserveAspectRatio="xMidYMid meet">
<metadata>
Created by potrace 1.16, written by Peter Selinger 2001-2019
</metadata>
<g transform="translate(0.000000,1024.000000) scale(0.100000,-0.100000)"
fill="#000000" stroke="none">
<path d="M0 5120 l0 -5120 5120 0 5120 0 0 5120 0 5120 -5120 0 -5120 0 0
-5120z m5245 3054 c179 -23 419 -82 560 -136 167 -64 384 -168 449 -215 28
-20 89 -64 136 -96 123 -87 257 -232 341 -372 56 -93 74 -132 109 -240 17 -55
47 -140 66 -188 33 -85 38 -145 10 -134 -6 3 -44 20 -85 38 -68 31 -72 34 -48
42 33 11 27 27 -28 88 -24 25 -64 79 -90 120 -107 164 -123 186 -189 257 -90
94 -223 202 -361 289 -142 91 -122 81 -361 173 -333 128 -527 166 -835 163
-277 -3 -440 -45 -614 -158 -147 -96 -301 -258 -284 -300 4 -11 8 -14 8 -7 1
19 19 14 26 -8 3 -11 11 -20 16 -20 6 0 25 -11 43 -25 18 -14 42 -25 53 -25
12 0 36 -14 54 -31 30 -28 34 -29 40 -12 4 10 8 15 10 11 1 -5 3 -12 4 -18 1
-5 3 -13 4 -17 1 -5 6 2 11 15 5 12 14 22 20 22 6 0 -5 -24 -25 -52 -134 -204
-122 -445 34 -651 80 -107 182 -177 453 -310 139 -69 298 -145 353 -170 55
-25 138 -63 185 -85 47 -22 137 -63 200 -92 297 -135 386 -188 507 -303 135
-129 214 -278 255 -482 16 -81 19 -126 15 -235 -3 -74 -10 -146 -16 -160 -9
-21 -10 -19 -6 20 3 31 2 37 -3 20 -5 -16 -10 -21 -15 -13 -5 7 -42 12 -100
13 -132 2 -151 4 -159 15 -4 6 -8 2 -8 -7 0 -10 -3 -18 -7 -18 -5 0 -8 51 -9
113 -1 130 -35 284 -85 378 -51 96 -152 214 -229 268 -108 76 -300 178 -555
296 -126 59 -295 137 -375 175 -80 38 -188 88 -241 113 -210 97 -368 215 -469
349 -121 160 -163 283 -162 468 1 129 20 219 74 347 18 43 31 84 30 92 -2 7 1
10 7 7 5 -4 12 -2 15 3 4 5 2 12 -3 15 -5 4 -13 1 -16 -4 -5 -8 -12 -7 -23 3
-18 15 -62 32 -74 29 -5 -1 -8 2 -8 6 0 4 -10 9 -22 9 -13 1 -24 7 -26 13 -2
5 -12 10 -23 10 -13 0 -19 7 -19 23 -1 21 -1 22 -15 3 -9 -11 -15 -14 -15 -7
0 19 85 125 175 220 95 100 181 158 370 252 120 60 157 74 260 94 221 45 468
51 710 19z m-530 -1005 c33 2 67 7 75 11 9 5 23 3 35 -6 25 -19 30 -18 43 9 9
18 11 19 11 4 1 -28 66 -119 117 -166 41 -39 273 -159 406 -212 26 -10 104
-47 175 -82 70 -35 139 -68 153 -72 14 -4 76 -32 139 -61 62 -30 115 -54 117
-54 2 0 98 -47 214 -104 338 -167 504 -311 657 -572 67 -114 133 -296 136
-375 1 -26 5 -45 10 -42 9 5 7 -21 -3 -62 -7 -28 -8 -28 -9 -5 -1 17 -4 21
-10 12 -6 -10 -10 -10 -20 1 -7 10 -27 13 -59 11 -84 -6 -104 -11 -128 -35
-21 -21 -22 -28 -14 -64 6 -26 6 -65 0 -110 -6 -38 -14 -99 -19 -135 l-9 -65
0 100 c0 208 -44 418 -121 585 -17 37 -82 142 -111 179 -62 78 -122 146 -149
165 -16 12 -60 46 -97 77 -38 30 -105 76 -149 101 -104 59 -341 177 -430 213
-38 16 -75 33 -81 37 -12 9 -118 56 -292 129 -51 22 -101 44 -110 49 -9 5 -65
31 -125 59 -110 51 -247 143 -303 203 -93 97 -145 230 -128 322 l8 41 6 -45 5
-45 60 4z m-1357 -752 c6 -34 16 -95 22 -135 7 -39 16 -70 21 -66 5 3 9 -2 9
-11 0 -9 4 -14 8 -11 4 3 23 -23 42 -57 51 -93 120 -197 130 -197 6 0 18 -8
28 -17 38 -38 145 -129 162 -138 27 -15 110 -88 110 -97 0 -10 -182 85 -230
120 -19 14 -69 60 -111 102 -60 60 -85 95 -113 156 -21 43 -44 93 -52 109 -13
28 -64 275 -64 311 0 13 3 14 14 5 8 -7 19 -40 24 -74z m687 -814 c9 -9 29
-17 43 -18 49 -3 53 -5 47 -15 -3 -5 3 -10 14 -10 22 0 114 -40 119 -52 2 -5
8 -8 14 -8 14 0 82 -32 89 -43 3 -4 10 -7 15 -6 16 2 54 -13 54 -22 0 -5 12
-9 26 -9 29 0 94 -28 94 -40 0 -5 14 -11 30 -15 17 -4 30 -10 30 -14 0 -4 6
-8 13 -8 13 0 136 -47 180 -70 33 -17 72 -53 56 -53 -6 0 -38 13 -72 29 -34
17 -102 46 -152 67 -49 20 -146 62 -215 94 -69 31 -137 60 -152 64 -15 3 -44
17 -63 31 -20 13 -60 31 -88 39 -31 9 -64 28 -82 46 -29 31 -30 43 0 13z
m-685 -514 c98 -69 440 -240 780 -391 124 -55 248 -110 275 -123 50 -23 134
-51 365 -122 116 -35 134 -38 248 -38 68 0 113 -3 100 -7 -33 -9 -248 -9 -248
0 0 11 -107 32 -128 26 -14 -5 -15 -4 -2 5 12 9 9 11 -16 11 -17 0 -34 3 -38
7 -12 12 -130 42 -140 36 -5 -4 -6 -1 -1 7 6 10 4 12 -8 7 -10 -3 -17 -2 -17
3 0 6 -9 10 -21 10 -11 0 -49 14 -85 31 -36 17 -76 32 -89 32 -14 0 -22 3 -19
8 7 12 -1 11 -41 -5 -19 -8 -35 -11 -35 -5 0 5 -7 9 -16 9 -8 0 -12 -5 -9 -10
3 -6 -1 -13 -9 -16 -11 -4 -16 -19 -16 -45 0 -28 -4 -39 -15 -39 -8 0 -15 -3
-15 -7 0 -5 -17 -9 -37 -10 -21 -1 -39 -7 -41 -12 -2 -6 -24 -11 -48 -11 -43
0 -49 -5 -45 -38 2 -14 -98 55 -134 92 -22 23 -32 61 -13 50 7 -4 10 -3 6 1
-5 5 -19 10 -33 11 l-26 3 23 -19 c13 -11 18 -19 11 -20 -6 0 -23 14 -36 30
-14 17 -29 30 -32 30 -12 0 -188 169 -218 208 -15 20 -69 80 -120 132 -89 91
-157 194 -157 236 0 15 6 13 33 -12 17 -17 48 -42 67 -55z m2224 -773 c-51
-36 -340 -149 -409 -160 l-40 -6 50 25 c28 14 42 25 33 25 -10 0 -18 4 -18 9
0 5 10 7 23 4 22 -4 22 -4 2 13 -18 15 -18 16 -2 10 11 -3 31 -8 45 -11 23 -5
24 -4 7 4 -11 5 -14 10 -7 10 6 1 12 12 12 25 0 21 5 24 45 28 44 3 65 -5 65
-25 0 -5 -6 -7 -13 -4 -8 3 -13 -3 -13 -14 0 -22 1 -23 18 -6 21 20 71 50 64
38 -11 -17 7 -13 75 19 70 32 95 38 63 16z m-2641 -1125 c71 -30 76 -35 59
-46 -10 -8 -31 -31 -45 -53 l-28 -39 -40 20 c-23 11 -70 22 -108 25 -61 4 -70
2 -96 -20 -53 -46 -16 -77 142 -119 116 -31 145 -47 181 -99 27 -40 28 -82 3
-135 -37 -80 -120 -126 -241 -133 -76 -4 -98 1 -253 60 l-38 15 24 16 c13 8
32 31 41 51 18 39 24 39 99 -1 22 -12 57 -17 113 -17 94 -1 124 15 124 66 0
35 -27 48 -162 79 -78 19 -97 27 -134 61 -95 87 -82 207 28 276 52 32 55 33
153 30 87 -3 110 -8 178 -37z m837 26 c0 -4 0 -34 0 -67 l0 -60 -102 0 -101 0
6 -251 5 -252 -45 7 c-25 3 -58 6 -72 6 l-26 0 3 245 3 245 -90 0 c-102 0
-101 -1 -101 87 l0 55 260 -4 c143 -2 260 -7 260 -11z m636 -7 c112 -23 184
-102 184 -201 0 -60 -43 -128 -104 -164 -25 -15 -46 -32 -46 -38 0 -7 34 -55
76 -107 42 -52 77 -97 79 -100 2 -3 -32 -6 -74 -7 -71 -1 -78 1 -91 23 -55 89
-118 173 -134 177 -10 3 -40 3 -67 0 l-49 -6 0 -98 0 -99 -62 0 -63 0 0 273
c0 149 -3 292 -7 317 l-7 45 157 -2 c86 -2 180 -8 208 -13z m892 -127 c39 -82
93 -202 122 -267 28 -66 63 -143 78 -170 l27 -51 -71 -1 -72 -1 -18 40 c-40
88 -38 87 -194 87 -157 0 -153 2 -186 -89 l-16 -46 -69 3 c-38 2 -69 5 -69 7
0 1 21 49 46 106 25 57 57 131 71 164 13 33 54 123 89 201 35 77 64 146 64
152 0 8 22 12 63 12 l64 0 71 -147z m831 131 c164 -37 252 -154 239 -317 -10
-126 -79 -222 -196 -274 -51 -22 -74 -26 -219 -31 l-163 -5 0 299 c0 164 -3
309 -6 322 l-6 22 141 0 c93 0 166 -5 210 -16z m708 -295 c-4 -172 -8 -313 -9
-314 -2 -2 -31 -5 -65 -7 l-63 -4 0 318 0 318 72 0 71 0 -6 -311z m483 302 c0
-8 34 -61 112 -174 l27 -38 22 50 c12 28 37 72 55 98 19 27 34 52 34 58 0 6
41 11 97 13 l98 3 -21 -23 c-12 -13 -42 -54 -67 -93 -26 -38 -67 -95 -92 -125
-57 -70 -60 -76 -44 -99 100 -139 149 -203 181 -240 21 -24 38 -47 38 -50 0
-3 -35 -6 -79 -7 l-78 0 -24 35 c-56 82 -121 166 -129 166 -7 0 -50 -53 -127
-157 l-35 -48 -74 0 c-41 0 -74 2 -74 5 0 3 20 31 44 62 24 32 53 76 64 99 11
22 41 63 66 91 25 28 46 54 46 58 0 9 -143 218 -187 272 -18 23 -33 44 -33 47
0 3 41 6 90 6 50 0 90 -4 90 -9z m-3404 -847 c45 -22 50 -32 26 -56 -16 -16
-23 -18 -40 -9 -38 20 -81 13 -113 -18 -37 -37 -38 -79 -4 -111 22 -21 31 -22
87 -17 82 9 101 -2 69 -37 -51 -55 -143 -46 -208 19 -38 38 -43 47 -43 89 0
58 20 90 79 128 51 32 97 36 147 12z m423 -4 c64 -32 106 -122 81 -171 -50
-97 -151 -135 -230 -88 -44 27 -57 44 -70 92 -15 53 -5 91 36 129 61 58 121
70 183 38z m339 -23 c18 -17 38 -46 44 -64 7 -18 15 -33 20 -33 4 0 26 27 48
60 38 55 79 84 97 66 4 -3 9 -69 11 -146 l5 -140 -32 0 -31 0 0 84 c0 47 -4
88 -10 91 -5 3 -16 -11 -25 -32 -18 -44 -43 -73 -61 -73 -7 0 -23 19 -36 42
-38 68 -48 61 -48 -31 l0 -81 -30 0 -30 0 0 151 0 150 23 -6 c12 -4 37 -21 55
-38z m965 -81 c31 -67 59 -133 62 -148 7 -27 5 -28 -28 -28 -31 0 -36 4 -42
30 -7 30 -7 30 -75 30 -68 0 -68 0 -75 -30 -5 -25 -11 -30 -36 -30 -16 0 -29
5 -29 12 0 6 20 61 44 122 25 61 47 122 51 137 5 20 12 25 39 25 33 0 35 -2
89 -120z m356 32 c40 -43 75 -77 77 -75 2 2 -1 39 -6 82 -5 43 -9 80 -7 81 2
2 16 0 31 -4 27 -7 28 -10 34 -92 4 -47 6 -110 7 -140 0 -53 -1 -55 -25 -53
-17 2 -51 31 -105 89 l-80 86 3 -91 3 -91 -25 0 c-23 0 -26 4 -26 38 0 22 -3
86 -6 144 -6 99 -6 106 12 110 26 6 30 4 113 -84z m370 62 c12 -36 49 -90 61
-90 5 0 19 26 31 59 l23 58 43 -1 c24 0 43 -2 43 -4 0 -11 -54 -104 -79 -136
-26 -32 -31 -47 -31 -92 0 -53 0 -54 -30 -54 -30 0 -30 1 -30 53 0 42 -5 58
-21 73 -20 18 -99 143 -99 157 0 4 18 7 39 7 35 0 40 -4 50 -30z m-1084 -11
c43 -38 52 -67 31 -106 -24 -48 -60 -65 -123 -61 l-55 3 4 -47 c5 -50 2 -53
-39 -42 -22 6 -23 10 -23 145 l0 139 85 0 c80 0 86 -2 120 -31z m1925 -99 l35
-8 -30 -3 c-16 -2 47 -6 140 -9 112 -4 40 -6 -210 -5 -379 0 -380 0 -383 21
-3 21 -3 21 205 17 114 -3 224 -9 243 -13z m-3747 -17 c3 -16 5 -28 4 -29 -1
-1 -96 3 -212 8 -128 5 -218 14 -230 21 -11 6 -51 14 -90 18 -38 3 63 6 226 7
l297 2 5 -27z"/>
<path d="M4190 2997 l0 -92 93 6 c134 9 187 42 172 110 -12 52 -54 69 -167 69
l-98 0 0 -93z"/>
<path d="M5127 2937 c-26 -56 -47 -105 -47 -109 0 -9 125 -11 168 -2 28 6 29
8 22 36 -5 16 -21 50 -36 76 -15 26 -33 59 -41 75 -8 15 -15 27 -16 27 -1 0
-23 -46 -50 -103z"/>
<path d="M5930 2910 l0 -193 80 7 c95 8 117 15 163 55 99 88 87 239 -24 297
-15 7 -70 16 -123 20 l-96 7 0 -193z"/>
<path d="M4211 2284 c-28 -36 -26 -66 6 -98 37 -37 66 -42 107 -17 82 51 51
141 -50 141 -34 0 -47 -5 -63 -26z"/>
</g>
</svg>
